Coordinates
version=1
nRows=14
nColumns=40
inDegrees=yes

Units are S.I. units (second, meters, Newtons, ...)
If the header above contains a line with 'inDegrees', this indicates whether rotational values are in degrees (yes) or radians (no).

endheader
time	pelvis_tilt	pelvis_list	pelvis_rotation	pelvis_tx	pelvis_ty	pelvis_tz	hip_flexion_r	hip_adduction_r	hip_rotation_r	knee_angle_r	knee_angle_r_beta	ankle_angle_r	subtalar_angle_r	mtp_angle_r	hip_flexion_l	hip_adduction_l	hip_rotation_l	knee_angle_l	knee_angle_l_beta	ankle_angle_l	subtalar_angle_l	mtp_angle_l	lumbar_extension	lumbar_bending	lumbar_rotation	arm_flex_r	arm_add_r	arm_rot_r	elbow_flex_r	pro_sup_r	wrist_flex_r	wrist_dev_r	arm_flex_l	arm_add_l	arm_rot_l	elbow_flex_l	pro_sup_l	wrist_flex_l	wrist_dev_l
      1.05000000	     -2.14685061	     -9.97126020	     89.90836765	      0.21866976	      0.89763758	     -0.15454600	     43.35628982	      0.05731208	     -4.59384599	     11.76092415	      0.20526685	      1.01542167	      0.00000000	      0.00000000	    -16.47002094	      4.70088989	      3.13508709	      9.16095465	      0.15988882	      0.81677270	      0.00000000	      0.00000000	      2.57065513	     -1.91798003	     -0.58569269	      0.00000000	      0.00000000	      0.00000000	      0.00000000	      0.00000000	      0.00000000	      0.00000000	      0.00000000	      0.00000000	      0.00000000	      0.00000000	      0.00000000	      0.00000000	      0.00000000
      1.06000000	     -1.54324438	    -10.27010999	     89.91144831	      0.21906685	      0.89583600	     -0.17754990	     44.07470481	      0.52345067	     -5.20824151	     14.36260372	      0.25067472	     -1.31263410	      0.00000000	      0.00000000	    -15.98911951	      3.93842581	      1.83152501	     11.54964058	      0.20157926	     -1.78089716	      0.00000000	      0.00000000	      3.07349440	     -1.07250431	     -0.38652646	      0.00000000	      0.00000000	      0.00000000	      0.00000000	      0.00000000	      0.00000000	      0.00000000	      0.00000000	      0.00000000	      0.00000000	      0.00000000	      0.00000000	      0.00000000	      0.00000000
      1.07000000	     -0.86186051	    -10.43912809	     89.91246888	      0.21952610	      0.89501396	     -0.20058174	     44.55851440	      1.04198629	     -5.74289266	     17.03941176	      0.29739384	     -3.65139711	      0.00000000	      0.00000000	    -15.32479673	      3.03290297	      0.52914567	     14.31579220	      0.24985771	     -5.00837090	      0.00000000	      0.00000000	      3.41961855	     -0.14354871	     -0.16558662	      0.00000000	      0.00000000	      0.00000000	      0.00000000	      0.00000000	      0.00000000	      0.00000000	      0.00000000	      0.00000000	      0.00000000	      0.00000000	      0.00000000	      0.00000000	      0.00000000
      1.08000000	     -0.13203117	    -10.45219487	     89.91173794	      0.22004419	      0.89521378	     -0.22355042	     44.75539574	      1.59300715	     -6.18836942	     19.69133743	      0.34367867	     -5.61206078	      0.00000000	      0.00000000	    -14.46186428	      2.00218131	     -0.76561583	     17.51714184	      0.30573180	     -8.79900714	      0.00000000	      0.00000000	      3.56496798	      0.83758742	      0.05167191	      0.00000000	      0.00000000	      0.00000000	      0.00000000	      0.00000000	      0.00000000	      0.00000000	      0.00000000	      0.00000000	      0.00000000	      0.00000000	      0.00000000	      0.00000000	      0.00000000
      1.09000000	      0.72391105	    -10.44124433	     89.90912500	      0.22079821	      0.89624352	     -0.24637498	     44.71304607	      2.33611307	     -6.35584327	     22.08037223	      0.38537520	     -6.99462111	      0.00000000	      0.00000000	    -13.26084368	      0.74608704	     -2.05070320	     21.14902663	      0.36912015	    -13.25689630	      0.00000000	      0.00000000	      3.67771627	      1.92512927	      0.31352175	      0.00000000	      0.00000000	      0.00000000	      0.00000000	      0.00000000	      0.00000000	      0.00000000	      0.00000000	      0.00000000	      0.00000000	      0.00000000	      0.00000000	      0.00000000	      0.00000000
      1.10000000	      1.54193774	    -10.20794794	     89.90496705	      0.22161646	      0.89822821	     -0.26893815	     44.31365923	      3.03550311	     -6.57895270	     24.37826239	      0.42548094	     -7.60144646	      0.00000000	      0.00000000	    -11.95319243	     -0.53505937	     -3.09778975	     25.17313959	      0.43935417	    -17.64184750	      0.00000000	      0.00000000	      3.48259711	      2.94615299	      0.56244611	      0.00000000	      0.00000000	      0.00000000	      0.00000000	      0.00000000	      0.00000000	      0.00000000	      0.00000000	      0.00000000	      0.00000000	      0.00000000	      0.00000000	      0.00000000	      0.00000000
      1.11000000	      2.45420654	    -10.01160022	     89.90015506	      0.22266182	      0.90085570	     -0.29115398	     43.65988265	      3.92976016	     -6.59463947	     26.18099001	      0.45694448	     -7.53980552	      0.00000000	      0.00000000	    -10.28783978	     -1.96116547	     -3.92443654	     29.51029706	      0.51505185	    -22.07973475	      0.00000000	      0.00000000	      3.30657819	      4.03739243	      0.85900375	      0.00000000	      0.00000000	      0.00000000	      0.00000000	      0.00000000	      0.00000000	      0.00000000	      0.00000000	      0.00000000	      0.00000000	      0.00000000	      0.00000000	      0.00000000	      0.00000000
      1.12000000	      3.29687186	     -9.73571857	     89.89297225	      0.22380124	      0.90411223	     -0.31295281	     42.71625846	      4.80124255	     -6.60826068	     27.64484957	      0.48249365	     -6.96391355	      0.00000000	      0.00000000	     -8.44167370	     -3.31918126	     -4.42069260	     34.03323270	      0.59399197	    -25.71657181	      0.00000000	      0.00000000	      2.99937585	      5.00950310	      1.17023572	      0.00000000	      0.00000000	      0.00000000	      0.00000000	      0.00000000	      0.00000000	      0.00000000	      0.00000000	      0.00000000	      0.00000000	      0.00000000	      0.00000000	      0.00000000	      0.00000000
      1.13000000	      4.03594545	     -9.42274439	     89.88521496	      0.22499573	      0.90791373	     -0.33428035	     41.50193770	      5.60272579	     -6.66384295	     28.69964043	      0.50090322	     -6.04557750	      0.00000000	      0.00000000	     -6.41857793	     -4.55106269	     -4.65349198	     38.58257235	      0.67339292	    -28.25020878	      0.00000000	      0.00000000	      2.60082981	      5.81992611	      1.47400286	      0.00000000	      0.00000000	      0.00000000	      0.00000000	      0.00000000	      0.00000000	      0.00000000	      0.00000000	      0.00000000	      0.00000000	      0.00000000	      0.00000000	      0.00000000	      0.00000000
      1.14000000	      4.71342928	     -9.24250792	     89.87704036	      0.22630236	      0.91199191	     -0.35514190	     40.14867008	      6.44830229	     -6.51893949	     29.20877792	      0.50978935	     -4.89351981	      0.00000000	      0.00000000	     -4.07553717	     -5.66324032	     -4.62022470	     43.04293480	      0.75124093	    -29.46585577	      0.00000000	      0.00000000	      2.33199086	      6.52597309	      1.83295438	      0.00000000	      0.00000000	      0.00000000	      0.00000000	      0.00000000	      0.00000000	      0.00000000	      0.00000000	      0.00000000	      0.00000000	      0.00000000	      0.00000000	      0.00000000	      0.00000000
      1.15000000	      5.20822450	     -9.07745153	     89.86913893	      0.22759462	      0.91641242	     -0.37557822	     38.62211894	      7.13651232	     -6.36882737	     29.36470568	      0.51251080	     -3.70307166	      0.00000000	      0.00000000	     -1.60537783	     -6.54238877	     -4.48255894	     47.22611941	      0.82425128	    -29.27310475	      0.00000000	      0.00000000	      2.05309140	      6.98638429	      2.16562391	      0.00000000	      0.00000000	      0.00000000	      0.00000000	      0.00000000	      0.00000000	      0.00000000	      0.00000000	      0.00000000	      0.00000000	      0.00000000	      0.00000000	      0.00000000	      0.00000000
      1.16000000	      5.52639109	     -8.99054861	     89.86140440	      0.22888490	      0.92105626	     -0.39566954	     36.98941172	      7.69050477	     -6.11163228	     29.15700959	      0.50888582	     -2.51482986	      0.00000000	      0.00000000	      1.01564450	     -7.17800319	     -4.27339303	     51.01096385	      0.89030927	    -27.77572035	      0.00000000	      0.00000000	      1.85540592	      7.21673162	      2.51079766	      0.00000000	      0.00000000	      0.00000000	      0.00000000	      0.00000000	      0.00000000	      0.00000000	      0.00000000	      0.00000000	      0.00000000	      0.00000000	      0.00000000	      0.00000000	      0.00000000
      1.17000000	      5.63349247	     -8.98196227	     89.85609356	      0.23011609	      0.92588102	     -0.41549440	     35.27915100	      8.04845072	     -5.77353557	     28.63825987	      0.49983193	     -1.43983445	      0.00000000	      0.00000000	      3.73915736	     -7.52543354	     -4.04586650	     54.27540853	      0.94728458	    -25.25964396	      0.00000000	      0.00000000	      1.74865641	      7.18204502	      2.82151061	      0.00000000	      0.00000000	      0.00000000	      0.00000000	      0.00000000	      0.00000000	      0.00000000	      0.00000000	      0.00000000	      0.00000000	      0.00000000	      0.00000000	      0.00000000	      0.00000000
      1.18000000	      5.53533063	     -9.02690087	     89.85253889	      0.23120162	      0.93083985	     -0.43510759	     33.50405799	      8.21009042	     -5.29398749	     27.86984386	      0.48642054	     -0.48565470	      0.00000000	      0.00000000	      6.49689290	     -7.56633067	     -3.79962045	     56.93433951	      0.99369168	    -22.13946919	      0.00000000	      0.00000000	      1.70876683	      6.91000126	      3.14924801	      0.00000000	      0.00000000	      0.00000000	      0.00000000	      0.00000000	      0.00000000	      0.00000000	      0.00000000	      0.00000000	      0.00000000	      0.00000000	      0.00000000	      0.00000000	      0.00000000
